<mxfile host="drawio-plugin" modified="2023-12-19T17:42:28.628Z" agent="5.0 (X11; Linux x86_64) AppleWebKit/537.36 (KHTML, like Gecko) Chrome/111.0.0.0 Safari/537.36" etag="oxtVAHr2ARGluxA4gMLc" version="20.5.3" type="embed"><diagram name="Page-1" id="3TRmshUgXymRwmlCvvzo"><mxGraphModel dx="1995" dy="563" grid="1" gridSize="10" guides="1" tooltips="1" connect="1" arrows="1" fold="1" page="1" pageScale="1" pageWidth="850" pageHeight="1100" math="0" shadow="0"><root><mxCell id="0"/><mxCell id="1" parent="0"/><mxCell id="ZdZ8-d_CaNb24pac3uKD-11" value="&lt;font style=&quot;font-size: 14px;&quot; face=&quot;PT Astra Serif&quot;&gt;Пользователь&lt;/font&gt;" style="shape=umlActor;verticalLabelPosition=bottom;verticalAlign=top;html=1;outlineConnect=0;" parent="1" vertex="1"><mxGeometry x="-360" y="170" width="30" height="60" as="geometry"/></mxCell><mxCell id="ZdZ8-d_CaNb24pac3uKD-13" value="Fitbas" style="text;html=1;align=center;verticalAlign=middle;resizable=0;points=[];autosize=1;strokeColor=none;fillColor=none;" parent="1" vertex="1"><mxGeometry x="-450" y="185" width="60" height="30" as="geometry"/></mxCell><mxCell id="ZdZ8-d_CaNb24pac3uKD-14" value="&lt;font style=&quot;font-size: 14px;&quot; face=&quot;PT Astra Serif&quot;&gt;Авторизация&lt;/font&gt;" style="ellipse;whiteSpace=wrap;html=1;" parent="1" vertex="1"><mxGeometry x="-470" y="250" width="120" height="80" as="geometry"/></mxCell><mxCell id="ZdZ8-d_CaNb24pac3uKD-15" value="&lt;font style=&quot;font-size: 14px;&quot; face=&quot;PT Astra Serif&quot;&gt;Регистрация&lt;/font&gt;" style="ellipse;whiteSpace=wrap;html=1;" parent="1" vertex="1"><mxGeometry x="-330" y="260" width="120" height="80" as="geometry"/></mxCell><mxCell id="ZdZ8-d_CaNb24pac3uKD-26" style="rounded=0;orthogonalLoop=1;jettySize=auto;html=1;exitX=0.5;exitY=1;exitDx=0;exitDy=0;entryX=0.5;entryY=0;entryDx=0;entryDy=0;endArrow=none;endFill=0;" parent="1" source="ZdZ8-d_CaNb24pac3uKD-16" target="ZdZ8-d_CaNb24pac3uKD-24" edge="1"><mxGeometry relative="1" as="geometry"/></mxCell><mxCell id="ZdZ8-d_CaNb24pac3uKD-16" value="&lt;font style=&quot;font-size: 14px;&quot; face=&quot;PT Astra Serif&quot;&gt;Просмотр еды в запланированных приёмах пищи&lt;/font&gt;" style="ellipse;whiteSpace=wrap;html=1;" parent="1" vertex="1"><mxGeometry x="-620" y="450" width="120" height="80" as="geometry"/></mxCell><mxCell id="ZdZ8-d_CaNb24pac3uKD-17" value="&lt;font face=&quot;PT Astra Serif&quot;&gt;&lt;span style=&quot;font-size: 14px;&quot;&gt;Список еды&lt;/span&gt;&lt;/font&gt;" style="ellipse;whiteSpace=wrap;html=1;" parent="1" vertex="1"><mxGeometry x="-800" y="280" width="120" height="80" as="geometry"/></mxCell><mxCell id="ZdZ8-d_CaNb24pac3uKD-18" value="&lt;font face=&quot;PT Astra Serif&quot; style=&quot;font-size: 14px;&quot;&gt;Просмотр запланированных тренировок&lt;/font&gt;" style="ellipse;whiteSpace=wrap;html=1;" parent="1" vertex="1"><mxGeometry x="-450" y="450" width="120" height="80" as="geometry"/></mxCell><mxCell id="ZdZ8-d_CaNb24pac3uKD-19" value="&lt;font face=&quot;PT Astra Serif&quot;&gt;&lt;span style=&quot;font-size: 14px;&quot;&gt;Список упражнений&lt;/span&gt;&lt;/font&gt;" style="ellipse;whiteSpace=wrap;html=1;" parent="1" vertex="1"><mxGeometry x="-310" y="340" width="120" height="80" as="geometry"/></mxCell><mxCell id="ZdZ8-d_CaNb24pac3uKD-22" style="rounded=0;orthogonalLoop=1;jettySize=auto;html=1;exitX=0.5;exitY=1;exitDx=0;exitDy=0;entryX=0.5;entryY=0;entryDx=0;entryDy=0;endArrow=none;endFill=0;" parent="1" source="ZdZ8-d_CaNb24pac3uKD-20" target="ZdZ8-d_CaNb24pac3uKD-16" edge="1"><mxGeometry relative="1" as="geometry"/></mxCell><mxCell id="ZdZ8-d_CaNb24pac3uKD-23" style="rounded=0;orthogonalLoop=1;jettySize=auto;html=1;exitX=0.5;exitY=1;exitDx=0;exitDy=0;entryX=0.5;entryY=0;entryDx=0;entryDy=0;endArrow=none;endFill=0;" parent="1" source="ZdZ8-d_CaNb24pac3uKD-20" target="ZdZ8-d_CaNb24pac3uKD-18" edge="1"><mxGeometry relative="1" as="geometry"/></mxCell><mxCell id="ZdZ8-d_CaNb24pac3uKD-20" value="&lt;font face=&quot;PT Astra Serif&quot;&gt;&lt;span style=&quot;font-size: 14px;&quot;&gt;Расписание&lt;/span&gt;&lt;/font&gt;" style="ellipse;whiteSpace=wrap;html=1;" parent="1" vertex="1"><mxGeometry x="-530" y="310" width="120" height="80" as="geometry"/></mxCell><mxCell id="ZdZ8-d_CaNb24pac3uKD-43" style="rounded=0;orthogonalLoop=1;jettySize=auto;html=1;exitX=0;exitY=0.5;exitDx=0;exitDy=0;entryX=1;entryY=0.5;entryDx=0;entryDy=0;endArrow=none;endFill=0;" parent="1" source="ZdZ8-d_CaNb24pac3uKD-24" target="ZdZ8-d_CaNb24pac3uKD-39" edge="1"><mxGeometry relative="1" as="geometry"/></mxCell><mxCell id="ZdZ8-d_CaNb24pac3uKD-44" style="rounded=0;orthogonalLoop=1;jettySize=auto;html=1;exitX=0;exitY=1;exitDx=0;exitDy=0;entryX=1;entryY=0;entryDx=0;entryDy=0;endArrow=none;endFill=0;" parent="1" source="ZdZ8-d_CaNb24pac3uKD-24" target="ZdZ8-d_CaNb24pac3uKD-40" edge="1"><mxGeometry relative="1" as="geometry"/></mxCell><mxCell id="ZdZ8-d_CaNb24pac3uKD-45" style="rounded=0;orthogonalLoop=1;jettySize=auto;html=1;exitX=0.5;exitY=1;exitDx=0;exitDy=0;entryX=0.5;entryY=0;entryDx=0;entryDy=0;endArrow=none;endFill=0;" parent="1" source="ZdZ8-d_CaNb24pac3uKD-24" target="ZdZ8-d_CaNb24pac3uKD-42" edge="1"><mxGeometry relative="1" as="geometry"/></mxCell><mxCell id="ZdZ8-d_CaNb24pac3uKD-24" value="&lt;font style=&quot;font-size: 14px;&quot; face=&quot;PT Astra Serif&quot;&gt;Просмотр еды по запланированному приёму пищи&amp;nbsp;&lt;/font&gt;" style="ellipse;whiteSpace=wrap;html=1;" parent="1" vertex="1"><mxGeometry x="-635" y="550" width="150" height="100" as="geometry"/></mxCell><mxCell id="ZdZ8-d_CaNb24pac3uKD-27" value="&lt;font style=&quot;font-size: 14px;&quot; face=&quot;PT Astra Serif&quot;&gt;Просмотр упражнений по запланированной тренировке&amp;nbsp;&lt;/font&gt;" style="ellipse;whiteSpace=wrap;html=1;" parent="1" vertex="1"><mxGeometry x="-480" y="550" width="150" height="100" as="geometry"/></mxCell><mxCell id="ZdZ8-d_CaNb24pac3uKD-39" value="&lt;font face=&quot;PT Astra Serif&quot;&gt;&lt;span style=&quot;font-size: 14px;&quot;&gt;Добавить еду в приём пищи&lt;/span&gt;&lt;/font&gt;" style="ellipse;whiteSpace=wrap;html=1;" parent="1" vertex="1"><mxGeometry x="-800" y="580" width="120" height="80" as="geometry"/></mxCell><mxCell id="ZdZ8-d_CaNb24pac3uKD-40" value="&lt;font face=&quot;PT Astra Serif&quot;&gt;&lt;span style=&quot;font-size: 14px;&quot;&gt;Удалить еду из приёма пищи&lt;/span&gt;&lt;/font&gt;" style="ellipse;whiteSpace=wrap;html=1;" parent="1" vertex="1"><mxGeometry x="-770" y="670" width="120" height="80" as="geometry"/></mxCell><mxCell id="ZdZ8-d_CaNb24pac3uKD-42" value="&lt;font face=&quot;PT Astra Serif&quot;&gt;&lt;span style=&quot;font-size: 14px;&quot;&gt;Изменить кол-во еды в приёме пищи&amp;nbsp;&lt;/span&gt;&lt;/font&gt;" style="ellipse;whiteSpace=wrap;html=1;" parent="1" vertex="1"><mxGeometry x="-635" y="680" width="120" height="80" as="geometry"/></mxCell><mxCell id="ZdZ8-d_CaNb24pac3uKD-47" value="&lt;font face=&quot;PT Astra Serif&quot;&gt;&lt;span style=&quot;font-size: 14px;&quot;&gt;Просмотр списка всей еды&lt;/span&gt;&lt;/font&gt;" style="ellipse;whiteSpace=wrap;html=1;" parent="1" vertex="1"><mxGeometry x="-850" y="380" width="120" height="80" as="geometry"/></mxCell><mxCell id="ZdZ8-d_CaNb24pac3uKD-48" value="&lt;font face=&quot;PT Astra Serif&quot;&gt;&lt;span style=&quot;font-size: 14px;&quot;&gt;Просмотр списка еды по категории&lt;/span&gt;&lt;/font&gt;" style="ellipse;whiteSpace=wrap;html=1;" parent="1" vertex="1"><mxGeometry x="-860" y="490" width="120" height="80" as="geometry"/></mxCell><mxCell id="ZdZ8-d_CaNb24pac3uKD-49" value="&lt;font face=&quot;PT Astra Serif&quot;&gt;&lt;span style=&quot;font-size: 14px;&quot;&gt;Просмотр списка всех упражнений&lt;/span&gt;&lt;/font&gt;" style="ellipse;whiteSpace=wrap;html=1;" parent="1" vertex="1"><mxGeometry x="-300" y="430" width="120" height="80" as="geometry"/></mxCell><mxCell id="ZdZ8-d_CaNb24pac3uKD-50" value="&lt;font face=&quot;PT Astra Serif&quot;&gt;&lt;span style=&quot;font-size: 14px;&quot;&gt;Просмотр списка упражнений по категории&lt;/span&gt;&lt;/font&gt;" style="ellipse;whiteSpace=wrap;html=1;" parent="1" vertex="1"><mxGeometry x="-280" y="550" width="120" height="80" as="geometry"/></mxCell><mxCell id="ZdZ8-d_CaNb24pac3uKD-51" value="&lt;font face=&quot;PT Astra Serif&quot;&gt;&lt;span style=&quot;font-size: 14px;&quot;&gt;Просмотр определённой еды&lt;/span&gt;&lt;/font&gt;" style="ellipse;whiteSpace=wrap;html=1;" parent="1" vertex="1"><mxGeometry x="-990" y="480" width="120" height="80" as="geometry"/></mxCell><mxCell id="2" value="Просмотр списка измерений&amp;nbsp;" style="ellipse;whiteSpace=wrap;html=1;" parent="1" vertex="1"><mxGeometry x="680" y="980" width="120" height="80" as="geometry"/></mxCell><mxCell id="3" value="Просмотр измерения по идентификатору" style="ellipse;whiteSpace=wrap;html=1;" parent="1" vertex="1"><mxGeometry x="810" y="980" width="120" height="80" as="geometry"/></mxCell><mxCell id="4" value="Просмотр списка название групп продуктов" style="ellipse;whiteSpace=wrap;html=1;" parent="1" vertex="1"><mxGeometry x="680" y="880" width="120" height="80" as="geometry"/></mxCell><mxCell id="5" value="Просмотр названия группы продуктов по идентификатору" style="ellipse;whiteSpace=wrap;html=1;" parent="1" vertex="1"><mxGeometry x="810" y="880" width="120" height="80" as="geometry"/></mxCell><mxCell id="6" value="Просмотр списка продуктов" style="ellipse;whiteSpace=wrap;html=1;" parent="1" vertex="1"><mxGeometry x="680" y="780" width="120" height="80" as="geometry"/></mxCell><mxCell id="7" value="Просмотр продукта по идентификатору" style="ellipse;whiteSpace=wrap;html=1;" parent="1" vertex="1"><mxGeometry x="810" y="780" width="120" height="80" as="geometry"/></mxCell><mxCell id="9" value="Просмотр списка продуктов рецепта по идентификатору блюда" style="ellipse;whiteSpace=wrap;html=1;" parent="1" vertex="1"><mxGeometry x="680" y="480" width="120" height="80" as="geometry"/></mxCell><mxCell id="10" value="Просмотр блюда по идентификатору" style="ellipse;whiteSpace=wrap;html=1;" parent="1" vertex="1"><mxGeometry x="810" y="680" width="120" height="80" as="geometry"/></mxCell><mxCell id="11" value="Просмотр списка блюд" style="ellipse;whiteSpace=wrap;html=1;" parent="1" vertex="1"><mxGeometry x="680" y="680" width="120" height="80" as="geometry"/></mxCell><mxCell id="12" value="Просмотр списков запланированных блюд" style="ellipse;whiteSpace=wrap;html=1;" parent="1" vertex="1"><mxGeometry x="680" y="270" width="120" height="80" as="geometry"/></mxCell><mxCell id="13" value="Просмотр списка запланированных блюд по дате" style="ellipse;whiteSpace=wrap;html=1;" parent="1" vertex="1"><mxGeometry x="810" y="270" width="120" height="80" as="geometry"/></mxCell><mxCell id="14" value="Добавить блюдо в запланированный список и приём пищи по дате" style="ellipse;whiteSpace=wrap;html=1;" parent="1" vertex="1"><mxGeometry x="940" y="270" width="120" height="80" as="geometry"/></mxCell><mxCell id="15" value="Удалить блюдо из запланированного списка и приёма пищи по дате" style="ellipse;whiteSpace=wrap;html=1;" parent="1" vertex="1"><mxGeometry x="1070" y="270" width="120" height="80" as="geometry"/></mxCell><mxCell id="16" value="Изменить статус выполненности и количество блюда из запланированного списка и приёма пищи по дате" style="ellipse;whiteSpace=wrap;html=1;" parent="1" vertex="1"><mxGeometry x="917.5" y="155" width="165" height="90" as="geometry"/></mxCell><mxCell id="18" value="Просмотр списка приёмов пищи" style="ellipse;whiteSpace=wrap;html=1;" parent="1" vertex="1"><mxGeometry x="680" y="370" width="120" height="80" as="geometry"/></mxCell><mxCell id="19" value="Просмотр приёма пищи по идентификатору" style="ellipse;whiteSpace=wrap;html=1;" parent="1" vertex="1"><mxGeometry x="810" y="370" width="120" height="80" as="geometry"/></mxCell><mxCell id="20" value="Просмотр списка типов для тренировок" style="ellipse;whiteSpace=wrap;html=1;" parent="1" vertex="1"><mxGeometry x="120" y="480" width="120" height="80" as="geometry"/></mxCell><mxCell id="21" value="Просмотр типа для тренировки по идентификатору" style="ellipse;whiteSpace=wrap;html=1;" parent="1" vertex="1"><mxGeometry x="250" y="480" width="120" height="80" as="geometry"/></mxCell><mxCell id="22" value="Просмотр списка упражнений" style="ellipse;whiteSpace=wrap;html=1;" parent="1" vertex="1"><mxGeometry x="120" y="380" width="120" height="80" as="geometry"/></mxCell><mxCell id="23" value="Просмотр упражения по идентификатору" style="ellipse;whiteSpace=wrap;html=1;" parent="1" vertex="1"><mxGeometry x="250" y="380" width="120" height="80" as="geometry"/></mxCell><mxCell id="24" value="Просмотр списков тренировок" style="ellipse;whiteSpace=wrap;html=1;" parent="1" vertex="1"><mxGeometry x="120" y="280" width="120" height="80" as="geometry"/></mxCell><mxCell id="25" value="Просмотр тренировки по дате" style="ellipse;whiteSpace=wrap;html=1;" parent="1" vertex="1"><mxGeometry x="250" y="280" width="120" height="80" as="geometry"/></mxCell><mxCell id="26" value="Добавить упражнение в тренировку по дате" style="ellipse;whiteSpace=wrap;html=1;" parent="1" vertex="1"><mxGeometry x="380" y="280" width="120" height="80" as="geometry"/></mxCell><mxCell id="27" value="Удалить упражнение из тренировки по дате" style="ellipse;whiteSpace=wrap;html=1;" parent="1" vertex="1"><mxGeometry x="510" y="280" width="120" height="80" as="geometry"/></mxCell><mxCell id="28" value="Изменить статус и дату со временем для упражения в тренировке по дате" style="ellipse;whiteSpace=wrap;html=1;" parent="1" vertex="1"><mxGeometry x="380" y="180" width="120" height="80" as="geometry"/></mxCell></root></mxGraphModel></diagram></mxfile>